<svg width="600" height="668" viewBox="0 0 600 668" fill="none" xmlns="http://www.w3.org/2000/svg">
    <path d="M33.3333 134H566.667M433.333 134L424.333 106.933C415.567 80.7 411.2 67.6 403.1 57.9C395.932 49.3374 386.728 42.7125 376.333 38.6333C364.6 34 350.8 34 323.133 34H276.867C249.233 34 235.4 34 223.667 38.6333C213.272 42.7125 204.068 49.3374 196.9 57.9C188.8 67.5667 184.433 80.7 175.7 106.933L166.667 134M500 134V474C500 530 500 558 489.1 579.4C479.513 598.215 464.215 613.513 445.4 623.1C424 634 396 634 340 634H260C204 634 176 634 154.6 623.1C135.785 613.513 120.487 598.215 110.9 579.4C100 558 100 530 100 474V134M366.667 267.333V500.667M233.333 267.333V500.667" stroke="black" stroke-width="66.6667" stroke-linecap="round" stroke-linejoin="round"/>
</svg>
